<svg id="Group_1131" data-name="Group 1131" xmlns="http://www.w3.org/2000/svg" width="95.256" height="14.838" viewBox="0 0 95.256 14.838">
  <g id="Group_89" data-name="Group 89" transform="translate(0 0.322)">
    <path id="Path_90" data-name="Path 90" d="M-1-.833H-8.205V6.173H-9.594V-8.021h1.389v6.584H-1V-8.021H.392V6.173H-1Z" transform="translate(9.594 8.021)"/>
  </g>
  <g id="Group_90" data-name="Group 90" transform="translate(12.282 0)">
    <path id="Path_91" data-name="Path 91" d="M0-.885A7.541,7.541,0,0,1,7.349-8.516,7.074,7.074,0,0,1,14.6-1.308a7.524,7.524,0,0,1-7.329,7.63A7.078,7.078,0,0,1,0-.885M7.812,5.537c3.362,0,5.4-2.859,5.4-5.9,0-4.127-2.738-7.369-6.422-7.369-3.342,0-5.4,2.859-5.4,5.9,0,4.127,2.759,7.369,6.423,7.369" transform="translate(0 8.516)"/>
  </g>
  <g id="Group_92" data-name="Group 92" transform="translate(27.625 0.322)">
    <path id="Path_93" data-name="Path 93" d="M-1.1-.194-4.908,12.329H-5.974L-10.605-1.865h1.45l4.127,12.624,3.4-12.624h1.45L3.77,10.779,7.334-1.865H8.461L3.891,12.329H2.824Z" transform="translate(10.605 1.865)"/>
  </g>
  <g id="Group_93" data-name="Group 93" transform="translate(48.343 0.322)">
    <path id="Path_94" data-name="Path 94" d="M0,0H1.389V13.691l6.423-.584L7.57,14.194H0Z"/>
  </g>
  <g id="Group_94" data-name="Group 94" transform="translate(56.598 0.322)">
    <path id="Path_95" data-name="Path 95" d="M-.654,0H.293L5.668,14.194H4.138L2.064,8.6H-3.191l-1.973,5.6H-6.291Zm2.5,7.993L-.613,1.329-2.969,7.993Z" transform="translate(6.291)"/>
  </g>
  <g id="Group_95" data-name="Group 95" transform="translate(70.209 0.322)">
    <path id="Path_96" data-name="Path 96" d="M-.016,0H1.212L9.688,12.644h.04L9.306,0h1.108l-.141,14.194H9.064L.568,1.55H.547l.4,12.644H-.157Z" transform="translate(0.157)"/>
  </g>
  <g id="Group_96" data-name="Group 96" transform="translate(84.001 0.322)">
    <path id="Path_97" data-name="Path 97" d="M-1.305-.817c0,3.745-2.4,7.147-7.671,7.147H-12.56V-7.864h3.987c4.087,0,7.268,2.779,7.268,7.047M-8.936,5.766C-5.352,5.766-2.8,3.793-2.8-.394A6.52,6.52,0,0,0-9.46-7.32h-1.712V5.545a11.878,11.878,0,0,0,2.235.221" transform="translate(12.56 7.864)"/>
  </g>
</svg>
